<svg width="100" height="100" viewBox="0 0 100 100" fill="none" xmlns="http://www.w3.org/2000/svg">
<g clip-path="url(#clip0_1_138)">
<path d="M86.2534 36.4205C66.1706 16.3377 33.4966 16.3377 13.4139 36.4205L0 49.8326L13.7466 63.5793C23.7872 73.6198 36.9764 78.6418 50.1672 78.6418C63.3581 78.6418 76.5456 73.6215 86.5878 63.5793L100.002 50.1654L86.2534 36.4205ZM84.1976 61.1907C65.4324 79.9543 34.9003 79.9543 16.1351 61.1907L4.77703 49.8326L15.8024 38.8073C34.5676 20.0438 65.0997 20.0438 83.8649 38.8073L95.223 50.1654L84.1976 61.1907Z" fill="white"/>
<path d="M48.2635 36.4355C41.7432 36.4355 36.4392 41.7396 36.4392 48.2599C36.4392 49.1923 37.1959 49.9491 38.1284 49.9491C39.0608 49.9491 39.8176 49.1923 39.8176 48.2599C39.8176 43.6028 43.6064 39.8139 48.2635 39.8139C49.1959 39.8139 49.9527 39.0572 49.9527 38.1247C49.9527 37.1923 49.1976 36.4355 48.2635 36.4355Z" fill="white"/>
<path d="M49.9527 27.9897C37.8446 27.9897 27.9932 37.8411 27.9932 49.9492C27.9932 62.0573 37.8446 71.9087 49.9527 71.9087C62.0608 71.9087 71.9121 62.0573 71.9121 49.9492C71.9121 37.8411 62.0625 27.9897 49.9527 27.9897ZM49.9527 68.5303C39.7078 68.5303 31.3716 60.1941 31.3716 49.9492C31.3716 39.7043 39.7078 31.3681 49.9527 31.3681C60.1976 31.3681 68.5338 39.7043 68.5338 49.9492C68.5338 60.1941 60.1993 68.5303 49.9527 68.5303Z" fill="white"/>
</g>
<defs>
<clipPath id="clip0_1_138">
<rect width="100" height="100" fill="white"/>
</clipPath>
</defs>
</svg>
