<svg width="44" height="24" viewBox="0 0 44 24" fill="none" xmlns="http://www.w3.org/2000/svg">
<path d="M43.5181 21.1995C43.4651 21.0951 43.4157 21.0085 43.3698 20.9391C42.6108 19.6892 41.1602 18.155 39.0191 16.3361L38.9738 16.2945L38.9512 16.2741L38.9283 16.2531H38.9053C37.9335 15.4062 37.3182 14.8367 37.0605 14.5451C36.5889 13.9897 36.4833 13.4275 36.741 12.8579C36.9231 12.4275 37.607 11.5186 38.7911 10.13C39.414 9.39404 39.9073 8.8042 40.2716 8.35982C42.899 5.16629 44.038 3.12558 43.6886 2.23689L43.5529 2.02921C43.4617 1.90419 43.2263 1.78981 42.8471 1.6855C42.467 1.5814 41.9812 1.56419 41.3888 1.63356L34.8287 1.67499C34.7224 1.64056 34.5707 1.64377 34.373 1.6855C34.1755 1.72722 34.0767 1.74816 34.0767 1.74816L33.9625 1.80031L33.8719 1.86297C33.796 1.9044 33.7124 1.97728 33.6212 2.08144C33.5305 2.18524 33.4546 2.30706 33.394 2.44587C32.6798 4.12587 31.8677 5.68784 30.9564 7.13172C30.3945 7.99269 29.8784 8.73884 29.4071 9.37062C28.9365 10.0022 28.5416 10.4675 28.223 10.7658C27.9039 11.0643 27.6158 11.3035 27.3572 11.4842C27.0989 11.665 26.9018 11.7413 26.7653 11.7134C26.6284 11.6855 26.4996 11.6577 26.3776 11.63C26.1651 11.505 25.9942 11.335 25.8654 11.1198C25.736 10.9046 25.6488 10.6337 25.6033 10.3075C25.558 9.98095 25.5312 9.70012 25.5235 9.46399C25.5164 9.22816 25.5197 8.89458 25.5351 8.46421C25.5509 8.03361 25.558 7.74227 25.558 7.58952C25.558 7.06184 25.5692 6.48915 25.5918 5.8713C25.6148 5.25346 25.6334 4.76392 25.6489 4.40328C25.6644 4.04228 25.6716 3.66034 25.6716 3.25768C25.6716 2.85502 25.6448 2.53924 25.5918 2.31005C25.5395 2.08115 25.4591 1.85896 25.3533 1.64355C25.2467 1.42836 25.0908 1.2619 24.8863 1.14373C24.6813 1.02571 24.4265 0.932046 24.1232 0.862457C23.3183 0.695923 22.2933 0.605836 21.0478 0.59183C18.2234 0.564111 16.4085 0.730863 15.6037 1.09187C15.2848 1.2444 14.9962 1.4528 14.7382 1.71642C14.4648 2.02199 14.4266 2.18874 14.624 2.21617C15.5353 2.34098 16.1804 2.63954 16.5601 3.11157L16.697 3.3617C16.8034 3.54217 16.9097 3.86167 17.016 4.31976C17.1222 4.77786 17.1907 5.2846 17.2209 5.83972C17.2967 6.85343 17.2967 7.72119 17.2209 8.44305C17.1449 9.16521 17.0731 9.7274 17.0045 10.1301C16.936 10.5327 16.8336 10.859 16.697 11.1088C16.5601 11.3587 16.4691 11.5115 16.4235 11.5669C16.3779 11.6224 16.3399 11.6573 16.3098 11.671C16.1124 11.7402 15.9071 11.7754 15.6946 11.7754C15.4819 11.7754 15.2238 11.6781 14.9202 11.4836C14.6166 11.2891 14.3015 11.022 13.975 10.6818C13.6484 10.3415 13.2801 9.86599 12.87 9.25515C12.4601 8.64431 12.0349 7.92237 11.5945 7.08934L11.2301 6.48521C11.0023 6.09656 10.6912 5.53065 10.2963 4.78799C9.90123 4.04505 9.55202 3.32639 9.24844 2.63218C9.12709 2.34061 8.94479 2.11864 8.70184 1.9659L8.58783 1.90324C8.51204 1.8478 8.39037 1.78893 8.22346 1.7262C8.05631 1.66354 7.88191 1.6186 7.69952 1.59096L1.45813 1.63239C0.820335 1.63239 0.387589 1.76449 0.159727 2.02834L0.0685342 2.15315C0.0229777 2.22266 0 2.33369 0 2.48651C0 2.63925 0.0455565 2.82672 0.136749 3.04869C1.04788 5.00654 2.03871 6.89472 3.10925 8.71353C4.17979 10.5323 5.11006 11.9974 5.89952 13.1075C6.68914 14.2184 7.494 15.2668 8.3141 16.2523C9.13419 17.2382 9.67704 17.87 9.94264 18.1475C10.2086 18.4256 10.4174 18.6335 10.5693 18.7723L11.1388 19.272C11.5033 19.6053 12.0385 20.0045 12.7446 20.4695C13.451 20.9348 14.2329 21.3929 15.0909 21.8445C15.9491 22.2954 16.9474 22.6633 18.0865 22.9479C19.2254 23.2327 20.3339 23.347 21.4122 23.2919H24.0318C24.5631 23.2499 24.9656 23.0972 25.2392 22.8336L25.3298 22.7292C25.3907 22.6463 25.4478 22.5176 25.5005 22.3443C25.5537 22.1708 25.5802 21.9796 25.5802 21.7716C25.5647 21.1747 25.6144 20.6368 25.728 20.1578C25.8415 19.679 25.9709 19.318 26.1157 19.0749C26.2603 18.832 26.4235 18.627 26.6052 18.4608C26.7873 18.2943 26.917 18.1934 26.9931 18.1587C27.0688 18.1237 27.1292 18.1 27.1747 18.0858C27.5392 17.9748 27.9681 18.0823 28.4621 18.4089C28.9557 18.7352 29.4187 19.138 29.8518 19.6168C30.2846 20.0961 30.8046 20.6338 31.4119 21.2307C32.0197 21.8278 32.551 22.2717 33.0064 22.5637L33.4618 22.8136C33.766 22.9803 34.1608 23.1331 34.6469 23.2719C35.132 23.4106 35.5571 23.4454 35.9221 23.376L41.7533 23.2928C42.33 23.2928 42.7788 23.2055 43.0971 23.0323C43.4161 22.8587 43.6056 22.6676 43.6667 22.4596C43.7277 22.2514 43.7309 22.0152 43.6783 21.7511C43.6243 21.4877 43.571 21.3036 43.5181 21.1995Z" fill="white"/>
</svg>
